<?xml version="1.0" encoding="UTF-8"?><svg id="Logos" xmlns="http://www.w3.org/2000/svg" viewBox="0 0 467 200"><defs><style>.cls-1{fill:#fff;}</style></defs><g><path class="cls-1" d="M167.2,64.02c0,.56-.17,1.01-.52,1.35s-.8,.52-1.35,.52h-17.44c-.49,0-.73,.25-.73,.73v55.47c0,.56-.17,1.01-.52,1.36s-.8,.52-1.36,.52h-13.57c-.56,0-1.01-.17-1.36-.52-.35-.35-.52-.8-.52-1.36v-55.47c0-.49-.25-.73-.73-.73l-43.64-.1c-.49,0-.73,.25-.73,.73v12.41c0,.49,.25,.73,.73,.73h20.15c.56,0,1.01,.17,1.36,.52s.52,.8,.52,1.35v10.95c0,.56-.17,1.01-.52,1.36s-.8,.52-1.36,.52h-20.15c-.49,0-.73,.25-.73,.73v27c0,.56-.17,1.01-.52,1.36-.35,.35-.8,.52-1.36,.52h-13.57c-.56,0-1.01-.17-1.36-.52s-.52-.8-.52-1.36V52.86c0-.56,.17-1.01,.52-1.36,.35-.34,.8-.52,1.36-.52h96.05c.56,0,1.01,.18,1.35,.52,.35,.35,.52,.8,.52,1.36v11.16Zm23.47-18.97L153.25,7.67c-3.96-3.95-9.32-6.17-14.92-6.17h-51.24c-5.59,0-10.96,2.22-14.92,6.17L34.76,45.05c-3.19,3.19-4.99,7.52-4.99,12.03v52.76c0,5.65,2.25,11.05,6.24,15.04l36.18,36.14c3.95,3.94,9.3,6.16,14.88,6.16h26.64l.08,29.96c0,1.13,1.37,1.69,2.17,.9l74.69-74.4c3.2-3.19,5.01-7.53,5.01-12.05V57.08c0-4.51-1.8-8.84-4.99-12.03"/><path class="cls-1" d="M25.94,127.76c-4.31-4.3-6.73-10.14-6.73-16.23V54.59c0-4.87,1.94-9.54,5.38-12.98L64.74,1.5h-3.88c-5.64,0-11.07,2.24-15.06,6.23L8.03,45.45c-3.22,3.22-5.03,7.59-5.03,12.14v53.24c0,5.7,2.27,11.16,6.3,15.18l36.52,36.48c3.98,3.98,9.39,6.21,15.02,6.21h6.41c-.78-.6-1.55-1.23-2.25-1.94L25.94,127.76Z"/></g><path class="cls-1" d="M436.86,54.55v-1.38c0-.3,.22-.52,.52-.52h10.51c.3,0,.52,.22,.52,.52v1.38c0,.3-.22,.52-.52,.52h-3.72c-.13,0-.22,.09-.22,.22v12.03c0,.3-.22,.52-.52,.52h-1.77c-.3,0-.52-.22-.52-.52v-12.03c0-.13-.09-.22-.22-.22h-3.55c-.3,0-.52-.22-.52-.52Zm24.09-1.9h1.86c.3,0,.52,.22,.52,.52v14.15c0,.3-.22,.52-.52,.52h-1.82c-.3,0-.52-.22-.52-.52v-9.82c0-.17-.13-.26-.26-.09l-2.25,3.29c-.13,.22-.35,.35-.61,.35h-.52c-.26,0-.48-.13-.61-.35l-2.29-3.29c-.13-.17-.26-.09-.26,.09v9.82c0,.3-.22,.52-.52,.52h-1.77c-.3,0-.52-.22-.52-.52v-14.15c0-.3,.22-.52,.52-.52h1.86c.26,0,.48,.13,.61,.35l3.07,4.46c.09,.13,.26,.13,.35,0l3.07-4.46c.13-.22,.35-.35,.61-.35Z"/><g><path class="cls-1" d="M216.82,99.12v-22.26c0-15.6,10.92-26.1,27.35-26.1s27.46,10.5,27.46,26.1v22.26c0,15.81-10.92,26.42-27.46,26.42s-27.35-10.61-27.35-26.42Zm40.15,.52v-22.88c0-8.11-5.1-13.42-12.79-13.42s-12.69,5.3-12.69,13.42v22.88c0,8.01,5.1,13.31,12.69,13.31s12.79-5.3,12.79-13.31Z"/><path class="cls-1" d="M326.43,97.77c0,4.68-.62,9.05-1.98,13-3.02,8.53-9.78,14.46-20.28,14.46-5.3,0-9.05-1.98-11.65-5.2-.31-.42-.62-.21-.62,.21v22.26c0,.73-.52,1.25-1.25,1.25h-12.17c-.73,0-1.25-.52-1.25-1.25V72.19c0-.73,.52-1.25,1.25-1.25h12.17c.73,0,1.25,.52,1.25,1.25v3.43c0,.42,.31,.52,.62,.21,2.7-3.54,6.66-5.72,12.06-5.72,9.67,0,16.95,5.72,19.97,15.18,1.35,3.85,1.87,8.11,1.87,12.48Zm-15.18-.21c0-4.26-.73-7.8-2.18-10.4-1.56-2.91-4.16-4.47-7.7-4.47-3.22,0-5.62,1.56-7.18,4.47-1.46,2.5-2.18,6.14-2.18,10.5s.73,8.22,2.29,10.82c1.56,2.7,3.95,4.16,7.07,4.16s5.62-1.46,7.28-4.06,2.6-6.45,2.6-11.02Z"/><path class="cls-1" d="M360.23,82.69h-9.98c-.31,0-.52,.21-.52,.52v22.05c0,4.58,1.77,6.76,5.93,6.76h3.43c.73,0,1.25,.52,1.25,1.25v9.88c0,.73-.42,1.25-1.25,1.35-2.18,.1-4.26,.21-6.24,.21-10.61,0-17.16-2.5-17.26-13.62v-27.87c0-.31-.21-.52-.52-.52h-5.93c-.73,0-1.25-.52-1.25-1.25v-9.26c0-.73,.52-1.25,1.25-1.25h5.93c.31,0,.52-.21,.52-.52v-12.38c0-.73,.52-1.25,1.25-1.25h11.65c.73,0,1.25,.52,1.25,1.25v12.38c0,.31,.21,.52,.52,.52h9.98c.73,0,1.25,.52,1.25,1.25v9.26c0,.73-.52,1.25-1.25,1.25Z"/><path class="cls-1" d="M364.91,56.69c0-4.89,3.43-8.22,8.22-8.22s8.22,3.33,8.22,8.22-3.54,8.22-8.22,8.22-8.22-3.54-8.22-8.22Zm.73,66.46v-51.07c0-.73,.52-1.25,1.25-1.25h12.17c.73,0,1.25,.52,1.25,1.25v51.07c0,.73-.52,1.25-1.25,1.25h-12.17c-.73,0-1.25-.52-1.25-1.25Z"/><path class="cls-1" d="M383.73,122.84l16.74-24.86c.1-.21,.1-.42,0-.62l-16.74-24.86c-.52-.83-.1-1.56,.83-1.56h13c.62,0,1.14,.31,1.46,.83l9.36,14.25c.21,.31,.52,.42,.73,0l9.36-14.25c.31-.52,.83-.83,1.46-.83h13.94c.94,0,1.25,.73,.73,1.56l-16.64,24.86c-.1,.21-.1,.42,0,.62l16.64,24.86c.52,.83,.21,1.56-.73,1.56h-13.1c-.62,0-1.14-.31-1.46-.83l-9.36-14.25c-.21-.42-.42-.42-.62,0l-9.36,14.25c-.31,.52-.83,.83-1.46,.83h-13.94c-.94,0-1.35-.73-.83-1.56Z"/></g></svg>